<?xml version="1.0" encoding="UTF-8"?>
<svg xmlns="http://www.w3.org/2000/svg" viewBox="0 0 512 512" width="512" height="512">
  <rect width="512" height="512" fill="#f4f1ea" />
  <defs>
    <linearGradient id="bulb" x1="0" y1="0" x2="0" y2="1">
      <stop offset="0" stop-color="#ffd67a" />
      <stop offset="1" stop-color="#f7a94b" />
    </linearGradient>
  </defs>
  <circle cx="256" cy="216" r="92" fill="url(#bulb)" stroke="#1f1a14" stroke-width="10" />
  <path d="M220 292h72v34c0 16-12 28-28 28h-16c-16 0-28-12-28-28z" fill="#d9c6b2" stroke="#1f1a14" stroke-width="8" />
  <rect x="232" y="354" width="48" height="36" rx="8" fill="#c9b39b" stroke="#1f1a14" stroke-width="8" />
  <path d="M256 110v-32" stroke="#1f1a14" stroke-width="8" stroke-linecap="round" />
  <path d="M200 120l-18-26" stroke="#1f1a14" stroke-width="8" stroke-linecap="round" />
  <path d="M312 120l18-26" stroke="#1f1a14" stroke-width="8" stroke-linecap="round" />

  <path d="M118 92l276 112" stroke="#1f1a14" stroke-width="8" stroke-linecap="round" />
  <path d="M116 142l276 112" stroke="#1f1a14" stroke-width="8" stroke-linecap="round" />
  <path d="M120 90c18 78 44 148 86 198" stroke="#1f1a14" stroke-width="8" fill="none" />
  <path d="M388 94c-18 78-44 148-86 198" stroke="#1f1a14" stroke-width="8" fill="none" />
  <path d="M122 238c54 18 110 28 166 28s112-10 166-28" stroke="#1f1a14" stroke-width="8" fill="none" />

  <path d="M90 70l-24-24" stroke="#1f1a14" stroke-width="10" stroke-linecap="round" />
  <path d="M86 98l-30-10" stroke="#1f1a14" stroke-width="10" stroke-linecap="round" />
  <path d="M116 52l-10-30" stroke="#1f1a14" stroke-width="10" stroke-linecap="round" />
</svg>
